HIERARCHY
ROOT Hips
{
	OFFSET	0.00	0.00	0.00
	CHANNELS 6 Xposition Yposition Zposition Zrotation Xrotation Yrotation
	JOINT LeftUpLeg
	{
		OFFSET	 0.126116	-0.065224	 0.014019
		CHANNELS 3 Zrotation Xrotation Yrotation
		JOINT LeftLeg
		{
			OFFSET	 0.000000	 0.569914	 0.000000
			CHANNELS 3 Zrotation Xrotation Yrotation
			JOINT LeftFoot
			{
				OFFSET	 0.000000	 0.544423	 0.000000
				CHANNELS 3 Zrotation Xrotation Yrotation
				JOINT LeftToeBase
				{
					OFFSET	 0.000000	 0.207117	 0.000000
					CHANNELS 3 Zrotation Xrotation Yrotation
					End Site
					{
						OFFSET	 0.000000	 0.207117	 0.000000
					}
				}
			}
		}
	}
	JOINT RightUpLeg
	{
		OFFSET	-0.124023	-0.065224	 0.008373
		CHANNELS 3 Zrotation Xrotation Yrotation
		JOINT RightLeg
		{
			OFFSET	 0.000000	 0.570047	 0.000000
			CHANNELS 3 Zrotation Xrotation Yrotation
			JOINT RightFoot
			{
				OFFSET	 0.000000	 0.544354	 0.000000
				CHANNELS 3 Zrotation Xrotation Yrotation
				JOINT RightToeBase
				{
					OFFSET	 0.000000	 0.207540	 0.000000
					CHANNELS 3 Zrotation Xrotation Yrotation
					End Site
					{
						OFFSET	 0.000000	 0.207540	 0.000000
					}
				}
			}
		}
	}
	JOINT Spine
	{
		OFFSET	 0.000184	 0.117403	 0.007763
		CHANNELS 3 Zrotation Xrotation Yrotation
		JOINT Spine1
		{
			OFFSET	 0.000000	 0.137269	 0.000000
			CHANNELS 3 Zrotation Xrotation Yrotation
			JOINT Spine2
			{
				OFFSET	 0.000000	 0.156879	 0.000000
				CHANNELS 3 Zrotation Xrotation Yrotation
				JOINT LeftShoulder
				{
					OFFSET	 0.080501	 0.160143	 0.002496
					CHANNELS 3 Zrotation Xrotation Yrotation
					JOINT LeftArm
					{
						OFFSET	 0.000000	 0.164363	 0.000000
						CHANNELS 3 Zrotation Xrotation Yrotation
						JOINT LeftForeArm
						{
							OFFSET	 0.000000	 0.364576	 0.000000
							CHANNELS 3 Zrotation Xrotation Yrotation
							JOINT LeftHand
							{
								OFFSET	 0.000000	 0.360812	 0.000000
								CHANNELS 3 Zrotation Xrotation Yrotation
								JOINT LeftHandIndex1
								{
									OFFSET	 0.000000	 0.086006	 0.000000
									CHANNELS 3 Zrotation Xrotation Yrotation
									JOINT LeftHandIndex2
									{
										OFFSET	 0.000000	 0.047237	 0.000000
										CHANNELS 3 Zrotation Xrotation Yrotation
										JOINT LeftHandIndex3
										{
											OFFSET	-0.004284	 0.038165	 0.000551
											CHANNELS 3 Zrotation Xrotation Yrotation
											End Site
											{
												OFFSET	-0.004284	 0.038165	 0.000551
											}
										}
									}
								}
							}
						}
					}
				}
				JOINT Neck
				{
					OFFSET	 0.000000	 0.176489	 0.000000
					CHANNELS 3 Zrotation Xrotation Yrotation
					JOINT Head
					{
						OFFSET	 0.000000	 0.077941	 0.001747
						CHANNELS 3 Zrotation Xrotation Yrotation
						End Site
						{
							OFFSET	 0.000000	 0.077941	 0.001747
						}
					}
				}
				JOINT RightShoulder
				{
					OFFSET	-0.080363	 0.159706	-0.000306
					CHANNELS 3 Zrotation Xrotation Yrotation
					JOINT RightArm
					{
						OFFSET	 0.000000	 0.164196	 0.000000
						CHANNELS 3 Zrotation Xrotation Yrotation
						JOINT RightForeArm
						{
							OFFSET	 0.000000	 0.365611	 0.000000
							CHANNELS 3 Zrotation Xrotation Yrotation
							JOINT RightHand
							{
								OFFSET	 0.000000	 0.360648	 0.000000
								CHANNELS 3 Zrotation Xrotation Yrotation
								JOINT RightHandIndex1
								{
									OFFSET	 0.000000	 0.069977	 0.000000
									CHANNELS 3 Zrotation Xrotation Yrotation
									JOINT RightHandIndex2
									{
										OFFSET	 0.000000	 0.052305	 0.000000
										CHANNELS 3 Zrotation Xrotation Yrotation
										JOINT RightHandIndex3
										{
											OFFSET	 0.009002	 0.042196	 0.000782
											CHANNELS 3 Zrotation Xrotation Yrotation
											End Site
											{
												OFFSET	 0.009002	 0.042196	 0.000782
											}
										}
									}
								}
							}
						}
					}
				}
			}
		}
	}
}
MOTION
Frames:    5
Frame Time: 0.03333334
-0.006890	 1.232962	 0.011374	 1.956280	 0.335105	 171.852400	-173.352700	 18.445630	 1.470799	 9.323984	-31.323110	 4.586226	-21.918800	 74.337960	 13.309910	 1.161667	 26.684400	-2.659516	-172.098900	 11.108840	-10.157870	-2.663202	-31.571100	 7.575663	 4.600126	 80.148380	-4.838084	-1.288650	 28.367980	 2.710373	 2.297557	 6.307948	 1.413419	 0.424352	 3.896198	 0.935954	 1.474988	-3.394774	 0.614882	-113.041300	 6.505565	 92.951230	 15.235790	 52.535800	 9.012125	 20.311880	-1.029089	 0.100522	 7.284638	 4.475160	 12.005680	 0.680880	 8.280881	-0.354908	-5.948102	 13.661280	 1.526927	 4.992010	-3.380715	-0.331523	 3.181456	-6.828923	 0.896205	-1.257793	-5.511760	 3.659141	 123.355800	 10.390400	-96.372640	-9.223773	 46.068580	-0.867350	-5.121282	-0.201357	 0.049607	 0.990242	-1.767954	-22.090640	-2.351027	 4.980784	 0.894550	 12.556400	 23.150120	-5.220288	-8.502455	 13.307660	-0.538470
-0.007210	 1.232800	 0.011982	 1.870268	 0.162030	 171.032300	-173.142400	 18.388770	 0.582529	 9.302204	-31.264120	 4.241014	-22.960510	 74.161770	 14.388770	 1.160948	 26.674670	-2.659230	-172.014200	 11.589620	-10.685950	-2.688493	-31.913420	 7.226996	 2.950037	 80.222430	-3.012384	-1.287962	 28.358920	 2.710081	 2.514013	 6.241177	 1.280509	 0.242698	 3.841747	 1.013773	 1.592261	-3.512126	 0.785452	-112.727500	 6.549800	 92.984060	 15.535790	 53.013140	 9.171028	 19.858500	-1.007081	 0.092467	 7.784755	 4.178544	 12.140290	 0.924364	 7.524487	-0.350833	-5.945039	 13.831120	 1.545141	 5.004276	-3.110777	-0.325056	 3.172555	-6.835556	 0.947483	-1.266143	-5.662627	 4.051255	 123.145400	 10.424590	-96.350530	-9.304365	 46.169160	-0.565403	-5.122162	-0.201339	 0.049656	 0.390074	-2.018763	-21.644640	-2.439142	 5.256731	 0.891371	 12.611320	 23.878260	-5.397553	-8.507386	 13.903650	-0.576125
-0.007725	 1.232614	 0.013051	 1.742532	-0.109592	 169.739600	-172.799900	 18.292280	-0.815714	 9.259844	-31.149280	 3.694680	-24.507280	 73.857710	 16.002380	 1.159819	 26.659380	-2.658782	-171.845900	 12.328090	-11.518710	-2.723021	-32.391190	 6.682134	 0.255259	 80.281490	-0.072016	-1.286881	 28.344700	 2.709625	 2.859862	 6.134934	 0.947947	 0.204248	 3.824167	 1.015837	 1.664274	-3.727581	 1.045459	-112.235000	 6.619589	 93.035120	 16.098950	 53.828950	 9.353345	 19.081510	-0.969155	 0.079039	 8.595000	 3.602917	 12.100980	 1.306195	 6.336291	-0.337913	-5.940342	 14.097680	 1.573735	 5.023461	-2.687086	-0.315024	 3.158599	-6.845980	 1.027959	-1.277072	-5.899701	 4.667261	 122.815100	 10.478130	-96.315620	-9.536444	 46.258770	-0.016345	-5.161040	-0.202816	 0.049449	-0.491439	-2.415803	-21.204450	-2.577498	 5.689864	 0.887239	 12.703250	 25.021680	-5.679632	-8.514344	 14.839530	-0.635350
-0.008442	 1.232494	 0.014606	 1.584175	-0.471648	 168.022200	-172.327400	 18.150470	-2.670715	 9.189947	-30.959020	 2.965946	-26.390570	 73.413870	 17.989740	 1.158328	 26.639200	-2.658191	-171.565100	 13.270850	-12.627170	-2.759493	-32.916460	 5.967199	-3.409660	 80.258610	 3.867471	-1.285455	 28.325940	 2.709022	 3.326189	 5.991993	 0.318458	 0.525914	 3.934610	 0.813670	 1.591441	-4.073518	 1.399689	-111.584700	 6.712402	 93.101610	 17.022300	 54.977280	 9.448959	 17.973150	-0.914759	 0.060851	 9.682521	 2.686306	 11.660030	 1.810072	 4.766144	-0.308691	-5.934341	 14.449590	 1.611502	 5.048669	-2.127685	-0.302001	 3.140196	-6.859773	 1.134197	-1.287425	-6.212966	 5.481439	 122.378900	 10.548460	-96.268970	-9.994738	 46.274850	 0.816783	-5.303349	-0.208395	 0.048958	-1.568680	-2.921070	-21.023590	-2.760293	 6.261753	 0.883390	 12.835740	 26.531960	-6.059728	-8.522038	 16.075800	-0.713815
-0.009414	 1.232541	 0.016643	 1.395697	-0.931876	 165.873900	-171.716100	 17.947850	-4.988744	 9.082562	-30.665330	 2.047892	-28.504250	 72.810170	 20.257820	 1.156473	 26.614080	-2.657456	-171.143000	 14.389040	-13.905710	-2.864627	-33.410080	 4.951294	-7.969359	 80.086110	 8.703704	-1.283681	 28.302580	 2.708272	 3.968436	 5.799767	-0.685202	 1.231575	 4.309858	 0.363182	 1.364334	-4.619893	 1.826568	-110.775000	 6.829027	 93.182950	 18.430670	 56.406310	 9.332354	 16.573600	-0.845683	 0.039327	 10.995770	 1.406914	 10.670770	 2.437905	 2.809765	-0.252999	-5.927192	 14.887770	 1.658559	 5.079870	-1.431106	-0.286135	 3.117320	-6.876992	 1.266468	-1.293832	-6.603145	 6.496347	 121.835400	 10.635590	-96.210200	-10.778900	 46.182320	 2.005691	-5.556101	-0.218281	 0.048019	-2.878537	-3.480207	-21.237410	-2.988158	 6.973897	 0.881159	 13.019350	 28.412790	-6.546297	-8.529207	 17.615890	-0.812041
